<svg width="38" height="37" viewBox="0 0 38 37" fill="none" xmlns="http://www.w3.org/2000/svg">
<path d="M19 9.81633C17.2361 9.81633 15.5118 10.3256 14.0452 11.2798C12.5786 12.234 11.4355 13.5902 10.7605 15.1769C10.0855 16.7636 9.90888 18.5096 10.253 20.1941C10.5971 21.8786 11.4465 23.4259 12.6938 24.6403C13.941 25.8547 15.5301 26.6818 17.2601 27.0168C18.9901 27.3519 20.7833 27.1799 22.4129 26.5227C24.0425 25.8654 25.4354 24.7524 26.4154 23.3244C27.3953 21.8964 27.9184 20.2175 27.9184 18.5C27.9184 16.1969 26.9788 13.9882 25.3062 12.3597C23.6337 10.7312 21.3653 9.81633 19 9.81633ZM19 24.9184C17.6963 24.9184 16.4218 24.5419 15.3378 23.8367C14.2537 23.1314 13.4089 22.129 12.9099 20.9562C12.411 19.7834 12.2805 18.4929 12.5348 17.2478C12.7892 16.0028 13.417 14.8592 14.3389 13.9615C15.2608 13.0639 16.4353 12.4526 17.714 12.205C18.9927 11.9573 20.3181 12.0844 21.5226 12.5702C22.7271 13.056 23.7566 13.8787 24.4809 14.9341C25.2052 15.9896 25.5918 17.2306 25.5918 18.5C25.5867 20.2007 24.8906 21.8304 23.6555 23.033C22.4204 24.2356 20.7467 24.9134 19 24.9184ZM27.5306 0H10.4694C7.69273 0 5.0298 1.07399 3.06641 2.98572C1.10302 4.89744 0 7.49029 0 10.1939V26.8061C0 29.5097 1.10302 32.1026 3.06641 34.0143C5.0298 35.926 7.69273 37 10.4694 37H27.5306C30.3073 37 32.9702 35.926 34.9336 34.0143C36.897 32.1026 38 29.5097 38 26.8061V10.1939C38 7.49029 36.897 4.89744 34.9336 2.98572C32.9702 1.07399 30.3073 0 27.5306 0ZM35.6735 26.8061C35.6735 28.9089 34.8156 30.9256 33.2885 32.4125C31.7614 33.8994 29.6902 34.7347 27.5306 34.7347H10.4694C8.30977 34.7347 6.2386 33.8994 4.71152 32.4125C3.18444 30.9256 2.32653 28.9089 2.32653 26.8061V10.1939C2.32653 8.09109 3.18444 6.07443 4.71152 4.58753C6.2386 3.10064 8.30977 2.26531 10.4694 2.26531H27.5306C29.6902 2.26531 31.7614 3.10064 33.2885 4.58753C34.8156 6.07443 35.6735 8.09109 35.6735 10.1939V26.8061ZM31.0204 8.68367C31.0204 9.05704 30.9067 9.42201 30.6937 9.73245C30.4806 10.0429 30.1778 10.2849 29.8236 10.4277C29.4693 10.5706 29.0795 10.608 28.7034 10.5352C28.3273 10.4623 27.9819 10.2825 27.7107 10.0185C27.4396 9.75451 27.2549 9.41815 27.1801 9.05196C27.1053 8.68577 27.1437 8.3062 27.2904 7.96126C27.4372 7.61632 27.6857 7.32149 28.0045 7.11406C28.3233 6.90663 28.6982 6.79592 29.0816 6.79592C29.5958 6.79592 30.089 6.99481 30.4526 7.34883C30.8161 7.70285 31.0204 8.18301 31.0204 8.68367Z" fill="black"/>
</svg>
