<svg width="38" height="38" viewBox="0 0 38 38" fill="none" xmlns="http://www.w3.org/2000/svg">
<path fill-rule="evenodd" clip-rule="evenodd" d="M17.7363 0.291485C18.5099 0.291485 19.1377 0.89978 19.1377 1.64929C19.1377 2.39879 18.5099 3.00709 17.7363 3.00709H10.7498C5.92144 3.00709 2.80283 6.2115 2.80283 11.1702V26.2219C2.80283 31.1806 5.92144 34.385 10.7498 34.385H27.2379C32.0662 34.385 35.1867 31.1806 35.1867 26.2219V18.9296C35.1867 18.1801 35.8145 17.5718 36.5881 17.5718C37.3617 17.5718 37.9895 18.1801 37.9895 18.9296V26.2219C37.9895 32.7285 33.6676 37.1006 27.2379 37.1006H10.7498C4.32009 37.1006 0 32.7285 0 26.2219V11.1702C0 4.66361 4.32009 0.291485 10.7498 0.291485H17.7363ZM34.0106 1.8821L36.2847 4.08536C37.3927 5.15712 38.0019 6.58191 38 8.09903C38 9.61614 37.3908 11.0391 36.2847 12.1091L22.2537 25.7034C21.2241 26.7009 19.8526 27.2513 18.3951 27.2513H11.3955C11.0181 27.2513 10.6556 27.1028 10.3921 26.8403C10.1287 26.5796 9.98479 26.2266 9.99414 25.8591L10.1698 19.0176C10.2053 17.6561 10.7715 16.3762 11.7655 15.4112L25.7311 1.8821C28.0145 -0.326587 31.7273 -0.326587 34.0106 1.8821ZM24.5808 6.83537L13.7481 17.3321C13.2641 17.801 12.9894 18.4237 12.9726 19.0845L12.8325 24.5357H18.3951C19.1052 24.5357 19.7704 24.2695 20.273 23.7825L31.1712 13.2207L24.5808 6.83537ZM27.7117 3.80294L26.5615 4.91453L33.1518 11.3016L34.304 10.1882C34.8795 9.63063 35.1972 8.88836 35.1972 8.09903C35.1972 7.30788 34.8795 6.5638 34.304 6.0062L32.03 3.80294C30.8397 2.65334 28.9039 2.65334 27.7117 3.80294Z" fill="black"/>
</svg>
