<svg width="52" height="46" viewBox="0 0 52 46" fill="none" xmlns="http://www.w3.org/2000/svg">
<path fill-rule="evenodd" clip-rule="evenodd" d="M16.6808 6.38109C16.6844 6.38215 16.5583 6.44277 16.402 6.51325C15.8039 6.77868 14.5637 7.33236 13.822 9.04391C12.7828 11.4376 12.5508 16.389 17.3533 26.3831C22.1344 36.3292 26.1644 39.3316 28.7114 40.0922L28.7487 40.1034C30.5692 40.6376 31.7955 40.0552 32.3873 39.7766C32.5682 39.6908 32.7099 39.631 32.8071 39.5958C35.2938 38.445 36.734 37.4655 37.0676 36.6619C37.4047 35.8404 36.7399 34.5516 35.8214 32.7694C35.5291 32.2021 35.2118 31.5858 34.8875 30.9108C34.0457 29.1647 33.2509 29.1825 31.4986 29.2336C29.076 29.3019 25.7549 29.3872 23.0553 23.7644C20.3493 18.1378 22.5369 15.6959 24.1353 13.9151C25.2906 12.6275 25.8179 12.0405 24.9765 10.2889C24.6461 9.60444 24.3612 8.9638 24.0982 8.37506C23.2871 6.55692 22.7032 5.24309 21.8468 4.97412L21.8325 4.96988C20.9818 4.71582 19.2936 5.17915 16.6691 6.38514C16.6765 6.38171 16.6808 6.38109 16.6808 6.38109ZM27.6386 42.6063C23.2126 41.2845 18.8632 36.2367 14.7106 27.5988C10.5429 18.9261 9.3483 12.4112 11.1635 8.23489C12.3616 5.47482 14.5032 4.51766 15.3075 4.15884C15.3527 4.13267 15.4966 4.06792 15.5464 4.04501C19.1213 2.40099 21.2543 1.94199 22.9551 2.47041C24.9282 3.08826 25.7413 4.9108 26.7695 7.21894C27.0241 7.79004 27.2994 8.41082 27.6192 9.07317C29.1664 12.2941 27.5744 14.0692 26.2964 15.494C24.9027 17.0486 23.6986 18.3897 25.6973 22.5504C27.6996 26.7121 29.5237 26.6616 31.632 26.5977C33.571 26.5457 35.9804 26.4753 37.5313 29.6973C37.8449 30.3503 38.1528 30.9467 38.4358 31.498C39.6014 33.7565 40.521 35.5409 39.7439 37.4252C39.0808 39.0317 37.3537 40.3545 33.7838 41.9963L32.9657 40.9395L33.5424 42.1018C32.7465 42.4783 30.6272 43.4818 27.6884 42.6212L27.6386 42.6063Z" fill="black"/>
</svg>
