<svg width="38" height="37" viewBox="0 0 38 37" fill="none" xmlns="http://www.w3.org/2000/svg">
<path d="M9.51953 20.772H11.0606V28.1671H12.5383V20.772H14.0793V19.5224H9.51953V20.772ZM17.3091 26.6307C17.0558 26.9175 16.1903 27.4911 16.1903 26.6717V21.7758H14.8815V27.1224C14.8815 28.7407 16.5491 28.3105 17.3302 27.4706V28.1671H18.639V21.7758H17.3302V26.6307H17.3091ZM22.1855 21.7348C21.4255 21.7348 20.94 22.2879 20.94 22.2879V19.502H19.6101V28.1671H20.94V27.6755C20.94 27.6755 21.3833 28.249 22.1855 28.249C22.8821 28.249 23.4099 27.655 23.4099 26.8356V23.2917C23.4099 22.3289 22.9455 21.7348 22.1855 21.7348ZM22.0377 26.6717C22.0377 27.1428 21.7 27.3682 21.2567 27.1838C21.1369 27.1295 21.0294 27.053 20.94 26.9585V22.9844C21.0244 22.9025 21.13 22.841 21.2144 22.7795C21.6789 22.5542 22.0377 22.9025 22.0377 23.3736V26.6717ZM26.9141 26.3439C26.9141 26.8356 26.6397 27.1633 26.323 27.1838C25.9853 27.2043 25.6475 26.938 25.6475 26.3439V25.1353H28.1596V23.4965C28.1661 23.247 28.1208 22.9987 28.0265 22.7665C27.9322 22.5342 27.7909 22.3227 27.6107 22.1445C27.2476 21.8231 26.7723 21.6474 26.2808 21.6529C25.8164 21.6529 25.3309 21.7963 24.9509 22.0831C24.5498 22.3903 24.2965 22.8615 24.2965 23.4965V26.3644C24.2965 26.938 24.4865 27.3887 24.782 27.7164C25.1409 28.0852 25.6264 28.29 26.1331 28.3105C26.7452 28.331 27.3996 28.0852 27.7796 27.573C28.0118 27.2658 28.1596 26.8561 28.1596 26.3644V26.0367H26.9141V26.3439ZM25.6475 23.4965C25.6475 23.1483 25.8586 22.7386 26.2597 22.7386C26.6608 22.7386 26.9141 23.1073 26.9141 23.4965V24.152H25.6475V23.4965Z" fill="black"/>
<path d="M18.9989 2.84757e-08C16.5038 0.000134499 14.0332 0.477167 11.728 1.40386C9.42291 2.33056 7.32844 3.68877 5.56422 5.40094C3.80001 7.11312 2.4006 9.14573 1.44588 11.3827C0.491173 13.6197 -0.00013858 16.0173 2.93204e-08 18.4385C0.000138639 20.8598 0.491726 23.2573 1.44669 25.4942C2.40166 27.7311 3.80131 29.7635 5.56572 31.4755C7.33013 33.1875 9.42475 34.5455 11.73 35.4719C14.0352 36.3984 16.5059 36.8751 19.0011 36.875C24.0402 36.8747 28.8728 34.932 32.4358 31.4741C35.9988 28.0162 38.0003 23.3264 38 18.4365C37.9997 13.5465 35.9977 8.857 32.4343 5.39949C28.8709 1.94198 24.0381 -0.000271546 18.9989 2.84757e-08ZM22.3343 6.90344H24.0231V12.3934C24.0231 12.7417 24.192 12.7417 24.2553 12.7417C24.5086 12.7417 24.8886 12.4753 25.0786 12.291V6.88295H26.7674V14.1346H25.0786V13.4996C24.8464 13.7044 24.6142 13.8683 24.382 13.9912C24.0653 14.1551 23.7698 14.2166 23.4743 14.2166C23.3124 14.2241 23.1509 14.1968 23.0013 14.1366C22.8516 14.0764 22.7176 13.9848 22.6087 13.8683C22.4188 13.643 22.3343 13.2947 22.3343 12.8646V6.90344ZM16.9513 8.80854C16.9513 7.68187 17.9012 6.76004 19.0623 6.76004C20.2233 6.76004 21.1733 7.68187 21.1733 8.80854V12.291C21.1733 13.4177 20.2233 14.3395 19.0623 14.3395C17.9012 14.3395 16.9513 13.4177 16.9513 12.291V8.80854ZM12.5604 4.40427L13.5737 8.00962L14.6081 4.40427H16.5291L14.5447 10.0991V14.1346H12.666V10.0991L10.6394 4.40427H12.5604ZM29.2373 30.0924C28.1607 31.1167 19.0412 31.1372 19.0412 31.1372C19.0412 31.1372 9.94278 31.1167 8.84506 30.0924C7.76846 29.0682 7.76846 23.9674 7.76846 23.9265C7.76846 23.906 7.76846 18.8052 8.84506 17.7605C9.92167 16.7362 19.0412 16.7157 19.0412 16.7157C19.0412 16.7157 28.1395 16.7362 29.2373 17.7605C30.3139 18.7847 30.335 23.8855 30.335 23.9265C30.335 23.9265 30.335 29.0477 29.2373 30.0924Z" fill="black"/>
<path d="M19.0203 13.0077C19.3792 13.0077 19.5481 12.8029 19.5692 12.4751V8.58295C19.5692 8.31664 19.2947 8.09131 19.0414 8.09131C18.7881 8.09131 18.5137 8.29616 18.5137 8.58295V12.4751C18.5137 12.7824 18.6614 12.9872 19.0203 13.0077Z" fill="black"/>
</svg>
